# xmcd
#
# Track frame offsets: 
#        150
#        17276
#        36316
#        55370
#        70735
#        86585
#        102185
#        119593
#        139036
#        158071
#
# Disc length: 2294 seconds
#
# Revision: 0
# Processed by: cddbd v1.5.2PL0 Copyright (c) Steve Scherf et al.
# Submitted via: ExactAudioCopy v1.3
#
DISCID=7e08f40a
DTITLE=Tim Gartland - Satisfied
DYEAR=2019
DGENRE=Soul Blues, Harmonica Blues
TTITLE0=Drinking For Two
TTITLE1=Don't Make More Trouble
TTITLE2=Blues For Free
TTITLE3=Can't Paint A Prettier Picture
TTITLE4=You Best Think Twice
TTITLE5=Satisfied
TTITLE6=Walk On
TTITLE7=Why Does The Room Begin To Sway?
TTITLE8=Artifacts
TTITLE9=Don't Judge Me
EXTD=
EXTT0=
EXTT1=
EXTT2=
EXTT3=
EXTT4=
EXTT5=
EXTT6=
EXTT7=
EXTT8=
EXTT9=
PLAYORDER=
